<svg xmlns="http://www.w3.org/2000/svg" width="1920" height="1080" viewBox="0 0 1920 1080">
  <!-- خلفية سماء غروب -->
  <defs>
    <linearGradient id="sky" x1="0%" y1="0%" x2="0%" y2="100%">
      <stop offset="0%" stop-color="#1A1040" />
      <stop offset="40%" stop-color="#5D2A42" />
      <stop offset="70%" stop-color="#B85C38" />
      <stop offset="100%" stop-color="#E49B4D" />
    </linearGradient>
    <linearGradient id="sand" x1="0%" y1="0%" x2="0%" y2="100%">
      <stop offset="0%" stop-color="#E7C898" />
      <stop offset="100%" stop-color="#9A7B4F" />
    </linearGradient>
    <filter id="blur" x="-50%" y="-50%" width="200%" height="200%">
      <feGaussianBlur in="SourceGraphic" stdDeviation="8" />
    </filter>
  </defs>

  <!-- السماء -->
  <rect width="1920" height="800" fill="url(#sky)" />
  
  <!-- الشمس -->
  <circle cx="960" cy="250" r="120" fill="#FFC859" opacity="0.8" />
  <circle cx="960" cy="250" r="140" fill="#FFC859" opacity="0.3" filter="url(#blur)" />
  
  <!-- صحراء -->
  <rect x="0" y="650" width="1920" height="430" fill="url(#sand)" />
  
  <!-- الهرم الأكبر -->
  <polygon points="960,180 1360,650 560,650" fill="#8A7157" />
  <polygon points="960,180 1360,650 560,650" fill="#000000" opacity="0.3" />
  
  <!-- الهرم الأوسط -->
  <polygon points="600,300 900,650 300,650" fill="#7A6550" />
  <polygon points="600,300 900,650 300,650" fill="#000000" opacity="0.2" />
  
  <!-- الهرم الصغير -->
  <polygon points="1320,350 1550,650 1090,650" fill="#9A8A6F" />
  <polygon points="1320,350 1550,650 1090,650" fill="#000000" opacity="0.1" />
  
  <!-- أبو الهول -->
  <path d="M850,550 Q900,450 950,550 L950,650 L850,650 Z" fill="#8A6B4D" />
  <rect x="870" y="500" width="60" height="50" fill="#8A6B4D" />
  <rect x="875" y="480" width="50" height="20" fill="#8A6B4D" />
  <path d="M875,480 Q885,460 900,480 Q915,460 925,480 Z" fill="#8A6B4D" />
  
  <!-- أعمدة معبد -->
  <rect x="1450" y="450" width="30" height="200" fill="#CBAA7B" />
  <rect x="1450" y="430" width="30" height="20" fill="#CBAA7B" />
  <rect x="1450" y="410" width="30" height="20" fill="#DAB98C" />
  
  <rect x="1500" y="450" width="30" height="200" fill="#CBAA7B" />
  <rect x="1500" y="430" width="30" height="20" fill="#CBAA7B" />
  <rect x="1500" y="410" width="30" height="20" fill="#DAB98C" />
  
  <rect x="1550" y="450" width="30" height="200" fill="#CBAA7B" />
  <rect x="1550" y="430" width="30" height="20" fill="#CBAA7B" />
  <rect x="1550" y="410" width="30" height="20" fill="#DAB98C" />
  
  <rect x="1600" y="450" width="30" height="200" fill="#CBAA7B" />
  <rect x="1600" y="430" width="30" height="20" fill="#CBAA7B" />
  <rect x="1600" y="410" width="30" height="20" fill="#DAB98C" />
  
  <rect x="1430" y="390" width="220" height="20" fill="#E2C398" />
  
  <!-- نخيل -->
  <path d="M300,430 L320,650 L340,650 Z" fill="#5A4428" />
  <path d="M320,450 C300,420 280,430 270,410 C280,415 290,415 300,410 C280,380 260,390 250,370 C260,375 270,375 280,370 C270,350 250,340 240,320 C250,330 270,332 280,325 C290,340 300,350 320,350 C340,350 350,340 360,325 C370,332 390,330 400,320 C390,340 370,350 360,370 C370,375 380,375 390,370 C380,390 360,380 340,410 C350,415 360,415 370,410 C360,430 340,420 320,450" fill="#097133" />
  
  <path d="M1720,480 L1740,650 L1760,650 Z" fill="#5A4428" />
  <path d="M1740,500 C1720,470 1700,480 1690,460 C1700,465 1710,465 1720,460 C1700,430 1680,440 1670,420 C1680,425 1690,425 1700,420 C1690,400 1670,390 1660,370 C1670,380 1690,382 1700,375 C1710,390 1720,400 1740,400 C1760,400 1770,390 1780,375 C1790,382 1810,380 1820,370 C1810,390 1790,400 1780,420 C1790,425 1800,425 1810,420 C1800,440 1780,430 1760,460 C1770,465 1780,465 1790,460 C1780,480 1760,470 1740,500" fill="#097133" />
  
  <!-- نجوم -->
  <circle cx="200" cy="150" r="2" fill="white" opacity="0.8" />
  <circle cx="350" cy="120" r="2" fill="white" opacity="0.7" />
  <circle cx="500" cy="180" r="3" fill="white" opacity="0.9" />
  <circle cx="700" cy="100" r="2" fill="white" opacity="0.6" />
  <circle cx="1100" cy="120" r="3" fill="white" opacity="0.8" />
  <circle cx="1300" cy="150" r="2" fill="white" opacity="0.7" />
  <circle cx="1500" cy="200" r="2" fill="white" opacity="0.6" />
  <circle cx="1700" cy="130" r="3" fill="white" opacity="0.9" />
  <circle cx="1800" cy="170" r="2" fill="white" opacity="0.7" />
</svg>