<svg width="1000" height="1000" viewBox="0 0 1000 1000" xmlns="http://www.w3.org/2000/svg">
  <defs>
    <pattern id="smallGrid" width="30" height="30" patternUnits="userSpaceOnUse">
      <path d="M 30 0 L 0 0 0 30" fill="none" stroke="#22c55e" stroke-width="0.5" opacity="0.2"/>
    </pattern>
    <pattern id="grid" width="150" height="150" patternUnits="userSpaceOnUse">
      <rect width="150" height="150" fill="url(#smallGrid)"/>
      <path d="M 150 0 L 0 0 0 150" fill="none" stroke="#22c55e" stroke-width="1" opacity="0.4"/>
    </pattern>
  </defs>
  
  <rect width="100%" height="100%" fill="url(#grid)" />
  
  <g opacity="0.25">
    <!-- Rocket 1 -->
    <path d="M200,200 L220,300 L180,300 Z" fill="#22c55e" />
    <rect x="190" y="300" width="20" height="60" fill="#22c55e" />
    
    <!-- Rocket 2 -->
    <path d="M500,300 L520,400 L480,400 Z" fill="#22c55e" />
    <rect x="490" y="400" width="20" height="60" fill="#22c55e" />
    
    <!-- Rocket 3 -->
    <path d="M800,200 L820,300 L780,300 Z" fill="#22c55e" />
    <rect x="790" y="300" width="20" height="60" fill="#22c55e" />
    
    <!-- Rocket 4 -->
    <path d="M300,600 L320,700 L280,700 Z" fill="#22c55e" />
    <rect x="290" y="700" width="20" height="60" fill="#22c55e" />
    
    <!-- Rocket 5 -->
    <path d="M700,600 L720,700 L680,700 Z" fill="#22c55e" />
    <rect x="690" y="700" width="20" height="60" fill="#22c55e" />
  </g>
  
  <!-- Target circles -->
  <g opacity="0.2">
    <circle cx="500" cy="500" r="200" fill="none" stroke="#22c55e" stroke-width="2" />
    <circle cx="500" cy="500" r="150" fill="none" stroke="#22c55e" stroke-width="1.5" />
    <circle cx="500" cy="500" r="100" fill="none" stroke="#22c55e" stroke-width="1" />
  </g>
</svg>
