<?xml version="1.0" encoding="UTF-8" standalone="no"?>
<svg width="1024" height="1024" xmlns="http://www.w3.org/2000/svg" xmlns:xlink="http://www.w3.org/1999/xlink">
  <!-- Dark green background to match poker table -->
  <rect width="100%" height="100%" rx="150" ry="150" fill="#006400"/>
  
  <!-- Lighter green center area representing a poker table -->
  <rect x="100" y="100" width="824" height="824" rx="100" ry="100" fill="#008800"/>
  
  <!-- Playing cards -->
  <g id="cards">
    <!-- Ace of Hearts -->
    <rect x="300" y="200" width="200" height="300" rx="20" ry="20" fill="#FFFFFF" stroke="#000000" stroke-width="5"/>
    <text x="320" y="260" font-family="Arial, sans-serif" font-size="60" font-weight="bold" fill="#FF0000">A</text>
    <path d="M400,350 C450,300 500,400 400,450 C300,400 350,300 400,350" fill="#FF0000"/>
    
    <!-- Ace of Spades -->
    <rect x="520" y="200" width="200" height="300" rx="20" ry="20" fill="#FFFFFF" stroke="#000000" stroke-width="5"/>
    <text x="540" y="260" font-family="Arial, sans-serif" font-size="60" font-weight="bold" fill="#000000">A</text>
    <path d="M620,350 C620,320 590,300 570,330 C550,360 580,400 620,430 C660,400 690,360 670,330 C650,300 620,320 620,350" fill="#000000"/>
  </g>
  
  <!-- Poker chips -->
  <g id="poker_chips">
    <!-- Red chip -->
    <circle cx="350" cy="650" r="80" fill="#D40000" stroke="#FFFFFF" stroke-width="8"/>
    <circle cx="350" cy="650" r="60" fill="#D40000" stroke="#FFFFFF" stroke-width="4"/>
    
    <!-- Blue chip -->
    <circle cx="670" cy="650" r="80" fill="#0055AA" stroke="#FFFFFF" stroke-width="8"/>
    <circle cx="670" cy="650" r="60" fill="#0055AA" stroke="#FFFFFF" stroke-width="4"/>
    
    <!-- Text: WIN -->
    <text x="512" y="800" font-family="Arial, sans-serif" font-size="100" font-weight="bold" text-anchor="middle" fill="#D4AF37" stroke="#000000" stroke-width="2">WIN</text>
  </g>
</svg>