<?xml version="1.0" encoding="UTF-8"?>
<svg width="1200" height="300" viewBox="0 0 1200 300" xmlns="http://www.w3.org/2000/svg">
  <!-- السماء والشمس -->
  <defs>
    <linearGradient id="sky" x1="0%" y1="0%" x2="0%" y2="100%">
      <stop offset="0%" stop-color="#5D8CAE" />
      <stop offset="100%" stop-color="#7BAFD3" />
    </linearGradient>
    <radialGradient id="sun" cx="20%" cy="30%" r="15%" fx="20%" fy="30%">
      <stop offset="0%" stop-color="#FFEA80" />
      <stop offset="100%" stop-color="#FFB300" stop-opacity="0" />
    </radialGradient>
    <linearGradient id="savanna" x1="0%" y1="0%" x2="0%" y2="100%">
      <stop offset="0%" stop-color="#D9B166" />
      <stop offset="100%" stop-color="#B67F31" />
    </linearGradient>
  </defs>
  
  <!-- خلفية السماء -->
  <rect width="1200" height="300" fill="url(#sky)" />
  
  <!-- تأثير الشمس -->
  <circle cx="240" cy="90" r="180" fill="url(#sun)" />
  <circle cx="240" cy="90" r="40" fill="#FFEA80" opacity="0.8" />
  
  <!-- الأفق البعيد - جبال وتلال -->
  <path d="M0,170 Q200,120 400,160 Q600,190 800,150 Q1000,120 1200,180 L1200,300 L0,300 Z" fill="#8C5E2B" opacity="0.7" />
  
  <!-- السهل - السافانا -->
  <rect x="0" y="200" width="1200" height="100" fill="url(#savanna)" />
  
  <!-- أعشاب السافانا - خطوط متعددة -->
  <g stroke="#8C5E2B" stroke-width="1" opacity="0.7">
    <path d="M50,250 L60,220" />
    <path d="M120,250 L110,215" />
    <path d="M200,250 L210,218" />
    <path d="M280,250 L270,217" />
    <path d="M350,250 L360,220" />
    <path d="M420,250 L410,216" />
    <path d="M500,250 L510,219" />
    <path d="M580,250 L570,218" />
    <path d="M650,250 L660,217" />
    <path d="M720,250 L710,220" />
    <path d="M800,250 L810,218" />
    <path d="M880,250 L870,215" />
    <path d="M950,250 L960,219" />
    <path d="M1020,250 L1010,217" />
    <path d="M1100,250 L1110,220" />
    <path d="M1170,250 L1160,216" />
  </g>
  
  <!-- شجرة بعيدة 1 -->
  <g transform="translate(300, 170) scale(0.5)">
    <path d="M-20,0 L20,0 L0,-40 Z" fill="#5D4037" />
    <path d="M-40,-30 L40,-30 L0,-80 Z" fill="#5D4037" />
    <path d="M-60,-70 L60,-70 L0,-120 Z" fill="#5D4037" />
    <rect x="-5" y="0" width="10" height="30" fill="#8B4513" />
  </g>
  
  <!-- شجرة بعيدة 2 -->
  <g transform="translate(900, 160) scale(0.6)">
    <path d="M-20,0 L20,0 L0,-40 Z" fill="#5D4037" />
    <path d="M-40,-30 L40,-30 L0,-80 Z" fill="#5D4037" />
    <path d="M-60,-70 L60,-70 L0,-120 Z" fill="#5D4037" />
    <rect x="-5" y="0" width="10" height="30" fill="#8B4513" />
  </g>
  
  <!-- رسم تخطيطي للأسد في الخلفية البعيدة -->
  <g transform="translate(700, 240) scale(0.15)">
    <path d="M0,0 C20,-10 40,-5 60,0 C80,-20 120,-25 140,-15 C180,-35 240,-40 260,-20 C280,-30 310,-25 320,-10
             C330,0 325,10 320,15 C330,20 335,30 330,40 C320,60 300,70 280,65 C260,80 240,85 220,80
             C210,85 200,80 190,70 C170,75 150,70 130,60 C110,70 90,65 70,55 C60,60 50,55 40,45
             C30,50 20,45 10,35 C0,40 -10,35 -15,25 C-20,15 -15,5 -5,0 Z" 
          fill="#D2B48C" />
    <ellipse cx="270" cy="0" rx="15" ry="10" fill="#8B4513" />
    <ellipse cx="240" cy="-10" rx="10" ry="7" fill="#8B4513" />
  </g>
  
  <!-- رسم تخطيطي للغزالة في الخلفية البعيدة -->
  <g transform="translate(500, 230) scale(0.15)">
    <path d="M0,0 C10,-5 20,-3 30,0 C40,-10 60,-12 70,-7 C90,-17 120,-20 130,-10 C140,-15 155,-12 160,-5
             C165,0 162,5 160,7 C165,10 167,15 165,20 C160,30 150,35 140,32 C130,40 120,42 110,40
             C105,42 100,40 95,35 C85,37 75,35 65,30 C55,35 45,32 35,27 C30,30 25,27 20,22
             C15,25 10,22 5,17 C0,20 -5,17 -8,12 C-10,7 -8,2 -3,0 Z" 
          fill="#D2B48C" />
    <ellipse cx="135" cy="0" rx="8" ry="5" fill="#8B4513" />
    <ellipse cx="120" cy="-5" rx="5" ry="3" fill="#8B4513" />
  </g>
  
  <!-- سطح الأرض -->
  <rect x="0" y="280" width="1200" height="20" fill="#B67F31" />
</svg>
