<?xml version="1.0" encoding="UTF-8"?>
<svg xmlns="http://www.w3.org/2000/svg" viewBox="0 0 100 100">
  <defs>
    <linearGradient id="gazelleBodyGradient" x1="0%" y1="0%" x2="100%" y2="100%">
      <stop offset="0%" stop-color="#d7ccc8"/>
      <stop offset="100%" stop-color="#a1887f"/>
    </linearGradient>
  </defs>
  
  <!-- جسم الغزالة -->
  <ellipse cx="50" cy="50" rx="25" ry="15" fill="url(#gazelleBodyGradient)"/>
  
  <!-- الرقبة -->
  <path d="M70,45 C75,35 70,25 60,20" fill="none" stroke="#a1887f" stroke-width="8" stroke-linecap="round"/>
  
  <!-- الرأس -->
  <ellipse cx="60" cy="15" rx="10" ry="6" transform="rotate(-15,60,15)" fill="#d7ccc8"/>
  
  <!-- العين -->
  <circle cx="63" cy="13" r="2" fill="#5d4037"/>
  
  <!-- الأذنين -->
  <ellipse cx="55" cy="12" rx="3" ry="5" transform="rotate(-30,55,12)" fill="#8d6e63"/>
  <ellipse cx="59" cy="8" rx="3" ry="5" transform="rotate(-10,59,8)" fill="#8d6e63"/>
  
  <!-- القرون -->
  <path d="M55,10 C54,5 52,2 50,0" fill="none" stroke="#8d6e63" stroke-width="1" stroke-linecap="round"/>
  <path d="M58,6 C59,3 60,0 62,-2" fill="none" stroke="#8d6e63" stroke-width="1" stroke-linecap="round"/>
  
  <!-- الأرجل -->
  <path d="M35,60 L33,80" fill="none" stroke="#8d6e63" stroke-width="3" stroke-linecap="round"/>
  <path d="M45,60 L43,80" fill="none" stroke="#8d6e63" stroke-width="3" stroke-linecap="round"/>
  <path d="M55,60 L57,80" fill="none" stroke="#8d6e63" stroke-width="3" stroke-linecap="round"/>
  <path d="M65,60 L67,80" fill="none" stroke="#8d6e63" stroke-width="3" stroke-linecap="round"/>
  
  <!-- الذيل -->
  <path d="M25,50 C20,45 18,60 15,65" fill="none" stroke="#a1887f" stroke-width="2" stroke-linecap="round"/>
  
  <!-- العلامات المميزة -->
  <path d="M40,45 C45,48 55,48 60,45" fill="none" stroke="#8d6e63" stroke-width="1"/>
  <path d="M42,48 C48,52 52,52 58,48" fill="none" stroke="#8d6e63" stroke-width="1"/>
</svg>
