<?xml version="1.0" encoding="UTF-8"?>
<svg xmlns="http://www.w3.org/2000/svg" viewBox="0 0 250 250" width="250" height="250">
  <defs>
    <radialGradient id="gazelleGradient" cx="50%" cy="50%" r="50%" fx="50%" fy="50%">
      <stop offset="0%" style="stop-color:#E2C9A6"/>
      <stop offset="70%" style="stop-color:#D4B48C"/>
      <stop offset="100%" style="stop-color:#C0A080"/>
    </radialGradient>
    <filter id="dropShadow" x="-20%" y="-20%" width="140%" height="140%">
      <feGaussianBlur stdDeviation="3" result="blur"/>
      <feOffset in="blur" dx="2" dy="2" result="offsetBlur"/>
      <feComposite in="SourceGraphic" in2="offsetBlur" operator="over"/>
    </filter>
  </defs>
  
  <!-- جسم الغزالة -->
  <g filter="url(#dropShadow)">
    <!-- جسم الغزالة الرئيسي -->
    <ellipse cx="125" cy="140" rx="70" ry="40" fill="url(#gazelleGradient)"/>
    
    <!-- الرأس -->
    <ellipse cx="185" cy="115" rx="30" ry="20" fill="url(#gazelleGradient)"/>
    
    <!-- الرقبة -->
    <path d="M155,120 Q165,110 175,105" stroke="url(#gazelleGradient)" stroke-width="20" fill="none" stroke-linecap="round"/>
    
    <!-- العنق -->
    <rect x="153" y="120" width="10" height="20" fill="url(#gazelleGradient)" rx="5" ry="5" transform="rotate(-30, 153, 120)"/>
    
    <!-- القرون -->
    <path d="M175,95 C180,75 185,65 190,60" stroke="#A08060" stroke-width="4" fill="none"/>
    <path d="M185,95 C190,75 195,65 200,60" stroke="#A08060" stroke-width="4" fill="none"/>
    
    <!-- العينان -->
    <ellipse cx="193" cy="110" rx="4" ry="5" fill="#000"/>
    <circle cx="192" cy="109" r="1" fill="#FFF"/>
    
    <!-- الأذن اليسرى -->
    <ellipse cx="175" cy="100" rx="10" ry="5" fill="#D4B48C" transform="rotate(-20, 175, 100)"/>
    
    <!-- الأذن اليمنى -->
    <ellipse cx="195" cy="100" rx="10" ry="5" fill="#D4B48C" transform="rotate(20, 195, 100)"/>
    
    <!-- الفم -->
    <path d="M195,120 Q200,123 205,120" stroke="#8D6E63" stroke-width="2" fill="none"/>
    
    <!-- الأرجل الأمامية -->
    <path d="M95,150 L85,200" stroke="#D4B48C" stroke-width="8" stroke-linecap="round"/>
    <path d="M125,150 L130,200" stroke="#D4B48C" stroke-width="8" stroke-linecap="round"/>
    
    <!-- الأرجل الخلفية -->
    <path d="M145,150 L135,200" stroke="#D4B48C" stroke-width="8" stroke-linecap="round"/>
    <path d="M165,150 L175,200" stroke="#D4B48C" stroke-width="8" stroke-linecap="round"/>
    
    <!-- الذيل -->
    <path d="M65,140 Q60,130 55,110" stroke="#D4B48C" stroke-width="5" fill="none" stroke-linecap="round"/>
  </g>
</svg>
