<?xml version="1.0" encoding="UTF-8"?>
<svg width="256" height="256" viewBox="0 0 256 256" fill="none" xmlns="http://www.w3.org/2000/svg">
  <!-- جسم الأسد -->
  <path d="M90 135 C105 135 130 130 140 140 C150 150 155 170 180 175 C205 180 220 165 225 150 C230 135 225 120 220 115 C215 110 205 105 200 95 C195 85 190 75 175 70 C160 65 140 70 130 75 C120 80 115 90 105 95 C95 100 85 105 80 115 C75 125 75 135 90 135Z" fill="#F2A93B"/>

  <!-- رأس الأسد -->
  <path d="M70 110 C70 90 80 70 100 65 C120 60 135 65 145 75 C155 85 165 100 155 115 C145 130 135 135 120 137 C105 139 90 135 80 125 C70 115 70 110 70 110Z" fill="#D78E36"/>

  <!-- فم الأسد -->
  <path d="M85 110 C90 115 100 120 110 118 C120 116 125 110 123 105 C121 100 115 98 108 98 C101 98 95 100 92 105 C89 110 85 110 85 110Z" fill="#BC6D2D"/>

  <!-- عيون الأسد -->
  <circle cx="110" cy="95" r="5" fill="#000000"/>
  <circle cx="112" cy="93" r="2" fill="#FFFFFF"/>

  <!-- أنف الأسد -->
  <path d="M100 105 Q105 108 110 105" stroke="#000000" stroke-width="2" fill="none"/>

  <!-- شعر الأسد -->
  <path d="M80 65 Q95 55 110 60 Q125 65 140 70 Q155 75 165 85 Q175 95 180 105" stroke="#E29A38" stroke-width="4" fill="none"/>
  <path d="M70 75 Q85 65 100 70 Q115 75 130 80 Q145 85 155 95 Q165 105 170 115" stroke="#E29A38" stroke-width="4" fill="none"/>
  <path d="M60 85 Q75 75 90 80 Q105 85 120 90 Q135 95 145 105 Q155 115 160 125" stroke="#E29A38" stroke-width="4" fill="none"/>

  <!-- أرجل الأسد -->
  <path d="M110 140 L110 175 Q110 185 120 185 Q130 185 130 175 L130 150" fill="#D78E36"/>
  <path d="M160 160 L160 195 Q160 205 170 205 Q180 205 180 195 L180 170" fill="#D78E36"/>

  <!-- ذيل الأسد -->
  <path d="M225 150 Q235 145 240 135 Q245 125 235 120 Q225 115 220 125 Q215 135 225 150Z" fill="#D78E36"/>

  <!-- تأثير توهج الأسد -->
  <filter id="glow">
    <feGaussianBlur stdDeviation="2.5" result="blur" />
    <feComposite in="SourceGraphic" in2="blur" operator="atop" />
  </filter>

  <!-- تطبيق التوهج -->
  <g filter="url(#glow)">
    <path d="M90 135 C105 135 130 130 140 140 C150 150 155 170 180 175 C205 180 220 165 225 150 C230 135 225 120 220 115 C215 110 205 105 200 95 C195 85 190 75 175 70 C160 65 140 70 130 75 C120 80 115 90 105 95 C95 100 85 105 80 115 C75 125 75 135 90 135Z" fill="#FFC34D" fill-opacity="0.3"/>
  </g>
</svg>
