<?xml version="1.0" encoding="UTF-8"?>
<svg xmlns="http://www.w3.org/2000/svg" viewBox="0 0 1000 400" width="1000" height="400">
  <defs>
    <linearGradient id="skyGradient" x1="0%" y1="0%" x2="0%" y2="100%">
      <stop offset="0%" style="stop-color:#87CEEB"/>
      <stop offset="100%" style="stop-color:#E6F0FF"/>
    </linearGradient>
    <linearGradient id="groundGradient" x1="0%" y1="0%" x2="0%" y2="100%">
      <stop offset="0%" style="stop-color:#D2B48C"/>
      <stop offset="100%" style="stop-color:#A0522D"/>
    </linearGradient>
    <linearGradient id="treeGradient" x1="0%" y1="0%" x2="0%" y2="100%">
      <stop offset="0%" style="stop-color:#556B2F"/>
      <stop offset="100%" style="stop-color:#2E8B57"/>
    </linearGradient>
    <linearGradient id="trunkGradient" x1="0%" y1="0%" x2="0%" y2="100%">
      <stop offset="0%" style="stop-color:#8B4513"/>
      <stop offset="100%" style="stop-color:#5E2612"/>
    </linearGradient>
  </defs>
  
  <!-- السماء -->
  <rect width="1000" height="200" fill="url(#skyGradient)"/>
  
  <!-- الأرض -->
  <rect y="200" width="1000" height="200" fill="url(#groundGradient)"/>
  
  <!-- شمس -->
  <circle cx="900" cy="80" r="40" fill="#FDB813" stroke="#FF8C00" stroke-width="5"/>
  <circle cx="900" cy="80" r="50" fill="none" stroke="#FDB813" stroke-width="2" opacity="0.6"/>
  <circle cx="900" cy="80" r="60" fill="none" stroke="#FDB813" stroke-width="1" opacity="0.4"/>
  
  <!-- الجبال البعيدة -->
  <path d="M0,200 L120,150 L200,190 L280,140 L400,200" fill="#9EA593"/>
  <path d="M800,200 L850,170 L900,190 L950,160 L1000,200" fill="#9EA593"/>
  
  <!-- شجرة سافانا (أكاسيا) 1 -->
  <rect x="150" y="170" width="20" height="50" fill="url(#trunkGradient)"/>
  <ellipse cx="160" cy="160" rx="40" ry="25" fill="url(#treeGradient)"/>
  <ellipse cx="180" cy="145" rx="30" ry="15" fill="url(#treeGradient)"/>
  <ellipse cx="140" cy="145" rx="25" ry="15" fill="url(#treeGradient)"/>
  
  <!-- شجرة سافانا (أكاسيا) 2 -->
  <rect x="800" y="160" width="15" height="60" fill="url(#trunkGradient)"/>
  <ellipse cx="807" cy="150" rx="35" ry="20" fill="url(#treeGradient)"/>
  <ellipse cx="820" cy="140" rx="25" ry="12" fill="url(#treeGradient)"/>
  <ellipse cx="790" cy="140" rx="20" ry="12" fill="url(#treeGradient)"/>
  
  <!-- أعشاب السافانا -->
  <path d="M50,230 Q55,210 60,230" stroke="#D2B48C" stroke-width="2" fill="none"/>
  <path d="M60,230 Q65,215 70,230" stroke="#D2B48C" stroke-width="2" fill="none"/>
  <path d="M70,230 Q75,205 80,230" stroke="#D2B48C" stroke-width="2" fill="none"/>
  
  <path d="M350,230 Q355,210 360,230" stroke="#D2B48C" stroke-width="2" fill="none"/>
  <path d="M360,230 Q365,215 370,230" stroke="#D2B48C" stroke-width="2" fill="none"/>
  <path d="M370,230 Q375,205 380,230" stroke="#D2B48C" stroke-width="2" fill="none"/>
  
  <path d="M650,230 Q655,210 660,230" stroke="#D2B48C" stroke-width="2" fill="none"/>
  <path d="M660,230 Q665,215 670,230" stroke="#D2B48C" stroke-width="2" fill="none"/>
  <path d="M670,230 Q675,205 680,230" stroke="#D2B48C" stroke-width="2" fill="none"/>
  
  <path d="M850,230 Q855,210 860,230" stroke="#D2B48C" stroke-width="2" fill="none"/>
  <path d="M860,230 Q865,215 870,230" stroke="#D2B48C" stroke-width="2" fill="none"/>
  <path d="M870,230 Q875,205 880,230" stroke="#D2B48C" stroke-width="2" fill="none"/>
  
  <!-- مسار الجري -->
  <path d="M0,300 L1000,300" stroke="#A0522D" stroke-width="5" stroke-dasharray="10 5"/>
</svg>
