<?xml version="1.0" encoding="UTF-8"?>
<svg width="120" height="120" viewBox="0 0 120 120" fill="none" xmlns="http://www.w3.org/2000/svg">
  <!-- خلفية دائرية -->
  <circle cx="60" cy="60" r="55" fill="#7A4069" stroke="#5B2E4D" stroke-width="4"/>
  
  <!-- رقم 10 بتصميم مصري -->
  <path d="M35 35L35 85" stroke="#D4AF37" stroke-width="8" stroke-linecap="round"/>
  <path d="M30 35L40 35" stroke="#D4AF37" stroke-width="4" stroke-linecap="round"/>
  <path d="M30 85L40 85" stroke="#D4AF37" stroke-width="4" stroke-linecap="round"/>
  
  <circle cx="67" cy="60" r="25" stroke="#D4AF37" stroke-width="8" fill="none"/>
  
  <!-- زخارف هيروغليفية على الحواف -->
  <circle cx="30" cy="30" r="5" fill="#D4AF37"/>
  <circle cx="90" cy="30" r="5" fill="#D4AF37"/>
  <circle cx="30" cy="90" r="5" fill="#D4AF37"/>
  <circle cx="90" cy="90" r="5" fill="#D4AF37"/>
  
  <!-- خطوط زخرفية مصرية -->
  <rect x="20" y="45" width="8" height="2" fill="#D4AF37"/>
  <rect x="20" y="55" width="8" height="2" fill="#D4AF37"/>
  <rect x="20" y="65" width="8" height="2" fill="#D4AF37"/>
  <rect x="20" y="75" width="8" height="2" fill="#D4AF37"/>
  
  <rect x="92" y="45" width="8" height="2" fill="#D4AF37"/>
  <rect x="92" y="55" width="8" height="2" fill="#D4AF37"/>
  <rect x="92" y="65" width="8" height="2" fill="#D4AF37"/>
  <rect x="92" y="75" width="8" height="2" fill="#D4AF37"/>
  
  <!-- توهج خارجي -->
  <circle cx="60" cy="60" r="57" stroke="#D4AF37" stroke-width="1" stroke-opacity="0.5"/>
  <circle cx="60" cy="60" r="59" stroke="#D4AF37" stroke-width="1" stroke-opacity="0.3"/>
</svg>
