<?xml version="1.0" encoding="UTF-8"?>
<svg width="200" height="200" viewBox="0 0 200 200" xmlns="http://www.w3.org/2000/svg">
  <title>Anubis Symbol</title>
  <defs>
    <linearGradient id="bodyGradient" x1="0%" y1="0%" x2="100%" y2="100%">
      <stop offset="0%" stop-color="#424242" />
      <stop offset="50%" stop-color="#212121" />
      <stop offset="100%" stop-color="#000000" />
    </linearGradient>
    <linearGradient id="goldGradient" x1="0%" y1="0%" x2="100%" y2="100%">
      <stop offset="0%" stop-color="#FFF9C4" />
      <stop offset="50%" stop-color="#FFC107" />
      <stop offset="100%" stop-color="#FF8F00" />
    </linearGradient>
  </defs>
  
  <!-- Background Frame -->
  <rect x="10" y="10" width="180" height="180" rx="5" fill="#111" stroke="url(#goldGradient)" stroke-width="5"/>
  
  <!-- Neck and Shoulders -->
  <path d="M80,140 L80,160 L120,160 L120,140 Z" fill="url(#bodyGradient)"/>
  
  <!-- Head Shape -->
  <path d="M65,60 
           L65,115 
           C65,140 135,140 135,115
           L135,60
           L120,40
           L110,55
           L100,40
           L90,55
           L80,40
           Z" fill="url(#bodyGradient)"/>
  
  <!-- Ears -->
  <path d="M65,70 L50,40 L65,60 Z" fill="url(#bodyGradient)"/>
  <path d="M135,70 L150,40 L135,60 Z" fill="url(#bodyGradient)"/>
  
  <!-- Eyes -->
  <ellipse cx="85" cy="85" rx="8" ry="12" fill="#D50000"/>
  <ellipse cx="115" cy="85" rx="8" ry="12" fill="#D50000"/>
  
  <!-- Nose -->
  <path d="M90,95 L100,115 L110,95 Z" fill="#000"/>
  
  <!-- Decorative Collar -->
  <path d="M70,130 Q100,150 130,130" stroke="url(#goldGradient)" stroke-width="8" fill="none"/>
  
  <!-- Golden Details around Eyes -->
  <path d="M75,75 L65,70" stroke="url(#goldGradient)" stroke-width="2" />
  <path d="M75,95 L65,100" stroke="url(#goldGradient)" stroke-width="2" />
  <path d="M125,75 L135,70" stroke="url(#goldGradient)" stroke-width="2" />
  <path d="M125,95 L135,100" stroke="url(#goldGradient)" stroke-width="2" />
  
  <!-- Crown -->
  <path d="M85,45 L100,30 L115,45 Z" fill="url(#goldGradient)" stroke="#000" stroke-width="1"/>
</svg>
