<?xml version="1.0" encoding="UTF-8"?>
<svg width="200" height="200" viewBox="0 0 200 200" xmlns="http://www.w3.org/2000/svg">
  <title>Ancient Egyptian Book Symbol</title>
  <defs>
    <linearGradient id="bookGradient" x1="0%" y1="0%" x2="100%" y2="100%">
      <stop offset="0%" stop-color="#8D6E63" />
      <stop offset="50%" stop-color="#5D4037" />
      <stop offset="100%" stop-color="#3E2723" />
    </linearGradient>
    <linearGradient id="goldGradient" x1="0%" y1="0%" x2="100%" y2="100%">
      <stop offset="0%" stop-color="#FFF9C4" />
      <stop offset="50%" stop-color="#FFC107" />
      <stop offset="100%" stop-color="#FF8F00" />
    </linearGradient>
  </defs>
  
  <!-- Background Frame -->
  <rect x="10" y="10" width="180" height="180" rx="5" fill="#111" stroke="url(#goldGradient)" stroke-width="5"/>
  
  <!-- Book Cover -->
  <rect x="40" y="30" width="120" height="140" rx="3" fill="url(#bookGradient)" stroke="#000" stroke-width="2"/>
  
  <!-- Book Spine Detail -->
  <rect x="40" y="30" width="15" height="140" fill="#3E2723" stroke="#000" stroke-width="1"/>
  
  <!-- Golden Decorative Elements -->
  <path d="M60,50 L140,50" stroke="url(#goldGradient)" stroke-width="3" />
  <path d="M60,150 L140,150" stroke="url(#goldGradient)" stroke-width="3" />
  
  <!-- Eye of Horus Symbol -->
  <path d="M70,80 
           C75,75 85,70 100,70 
           C115,70 125,75 130,80 
           L125,90
           C120,87 110,85 100,85
           C90,85 80,87 75,90
           Z" fill="url(#goldGradient)" stroke="#000" stroke-width="1"/>
  <path d="M100,90 L120,105" stroke="url(#goldGradient)" stroke-width="3" />
  <path d="M95,90 L80,105" stroke="url(#goldGradient)" stroke-width="3" />
  <path d="M100,90 L100,115" stroke="url(#goldGradient)" stroke-width="3" />
  <circle cx="100" cy="80" r="5" fill="#000"/>
  
  <!-- Hieroglyphic Symbols -->
  <rect x="70" y="120" width="5" height="15" fill="url(#goldGradient)" />
  <rect x="85" y="120" width="5" height="15" fill="url(#goldGradient)" />
  <rect x="100" y="120" width="5" height="15" fill="url(#goldGradient)" />
  <rect x="115" y="120" width="5" height="15" fill="url(#goldGradient)" />
  
  <circle cx="77" cy="120" r="3" fill="url(#goldGradient)" />
  <circle cx="92" cy="120" r="3" fill="url(#goldGradient)" />
  <circle cx="107" cy="120" r="3" fill="url(#goldGradient)" />
  <circle cx="122" cy="120" r="3" fill="url(#goldGradient)" />
</svg>
