<?xml version="1.0" encoding="UTF-8"?>
<svg width="120" height="120" viewBox="0 0 120 120" fill="none" xmlns="http://www.w3.org/2000/svg">
  <!-- خلفية دائرية -->
  <circle cx="60" cy="60" r="55" fill="#EED2B8" stroke="#CCA48E" stroke-width="4"/>
  
  <!-- جسم القطة المصرية -->
  <ellipse cx="60" cy="70" rx="25" ry="20" fill="#E6B785" stroke="#C9A074" stroke-width="2"/>
  
  <!-- الرأس -->
  <circle cx="60" cy="45" r="20" fill="#E6B785" stroke="#C9A074" stroke-width="2"/>
  
  <!-- الآذان المثلثة -->
  <path d="M45 30L50 35L40 40Z" fill="#E6B785" stroke="#C9A074" stroke-width="1"/>
  <path d="M75 30L70 35L80 40Z" fill="#E6B785" stroke="#C9A074" stroke-width="1"/>
  
  <!-- تفاصيل داخل الآذان -->
  <path d="M45 32L48 35L42 38Z" fill="#C9A074"/>
  <path d="M75 32L72 35L78 38Z" fill="#C9A074"/>
  
  <!-- العينان المميزتان للقطة المصرية -->
  <ellipse cx="50" cy="45" rx="5" ry="8" fill="#FFF"/>
  <ellipse cx="70" cy="45" rx="5" ry="8" fill="#FFF"/>
  <ellipse cx="50" cy="45" rx="2" ry="5" fill="#000"/>
  <ellipse cx="70" cy="45" rx="2" ry="5" fill="#000"/>
  
  <!-- الأنف والفم -->
  <path d="M60 50L60 55" stroke="#C9A074" stroke-width="1"/>
  <circle cx="60" cy="50" r="2" fill="#C9A074"/>
  <path d="M54 55C56 58 64 58 66 55" stroke="#C9A074" stroke-width="1" fill="none"/>
  
  <!-- الشوارب -->
  <path d="M60 52L45 50" stroke="#000" stroke-width="0.5"/>
  <path d="M60 52L45 52" stroke="#000" stroke-width="0.5"/>
  <path d="M60 52L45 54" stroke="#000" stroke-width="0.5"/>
  <path d="M60 52L75 50" stroke="#000" stroke-width="0.5"/>
  <path d="M60 52L75 52" stroke="#000" stroke-width="0.5"/>
  <path d="M60 52L75 54" stroke="#000" stroke-width="0.5"/>
  
  <!-- القلادة المصرية -->
  <path d="M45 65C50 70 70 70 75 65" fill="#D4AF37" stroke="#B8860B" stroke-width="2"/>
  <circle cx="60" cy="67" r="3" fill="#1E3EB0" stroke="#B8860B" stroke-width="1"/>
  
  <!-- الذيل المنحني -->
  <path d="M80 80C90 75 95 65 90 60" stroke="#C9A074" stroke-width="4" stroke-linecap="round"/>
  
  <!-- توهج خارجي -->
  <circle cx="60" cy="60" r="57" stroke="#D4AF37" stroke-width="1" stroke-opacity="0.5"/>
  <circle cx="60" cy="60" r="59" stroke="#D4AF37" stroke-width="1" stroke-opacity="0.3"/>
</svg>
