<?xml version="1.0" encoding="UTF-8"?>
<svg width="200" height="200" viewBox="0 0 200 200" xmlns="http://www.w3.org/2000/svg">
  <title>Egyptian Cat Symbol</title>
  <defs>
    <linearGradient id="catGradient" x1="0%" y1="0%" x2="100%" y2="100%">
      <stop offset="0%" stop-color="#FBC02D" />
      <stop offset="50%" stop-color="#F57F17" />
      <stop offset="100%" stop-color="#E65100" />
    </linearGradient>
    <linearGradient id="goldGradient" x1="0%" y1="0%" x2="100%" y2="100%">
      <stop offset="0%" stop-color="#FFF9C4" />
      <stop offset="50%" stop-color="#FFC107" />
      <stop offset="100%" stop-color="#FF8F00" />
    </linearGradient>
  </defs>
  
  <!-- Background Frame -->
  <rect x="10" y="10" width="180" height="180" rx="5" fill="#111" stroke="url(#goldGradient)" stroke-width="5"/>
  
  <!-- Body Shape -->
  <path d="M60,140 
           C60,110 140,110 140,140
           L140,150
           L130,160
           L70,160
           L60,150
           Z" fill="url(#catGradient)"/>
  
  <!-- Head Shape -->
  <path d="M70,110 
           C70,80 130,80 130,110
           C130,115 125,120 125,120
           L75,120
           C75,120 70,115 70,110
           Z" fill="url(#catGradient)"/>
  
  <!-- Ears -->
  <path d="M70,90 L60,70 L80,80 Z" fill="url(#catGradient)" stroke="#000" stroke-width="1"/>
  <path d="M130,90 L140,70 L120,80 Z" fill="url(#catGradient)" stroke="#000" stroke-width="1"/>
  
  <!-- Eyes -->
  <ellipse cx="85" cy="100" rx="7" ry="15" fill="#000"/>
  <ellipse cx="115" cy="100" rx="7" ry="15" fill="#000"/>
  
  <!-- Eye Highlights -->
  <ellipse cx="85" cy="95" rx="3" ry="6" fill="#76FF03"/>
  <ellipse cx="115" cy="95" rx="3" ry="6" fill="#76FF03"/>
  
  <!-- Nose -->
  <path d="M95,110 L100,115 L105,110 Z" fill="#000"/>
  
  <!-- Whiskers -->
  <path d="M90,115 L60,110" stroke="#000" stroke-width="1" fill="none"/>
  <path d="M90,118 L65,120" stroke="#000" stroke-width="1" fill="none"/>
  <path d="M110,115 L140,110" stroke="#000" stroke-width="1" fill="none"/>
  <path d="M110,118 L135,120" stroke="#000" stroke-width="1" fill="none"/>
  
  <!-- Decorative Collar -->
  <path d="M75,130 Q100,140 125,130" stroke="url(#goldGradient)" stroke-width="5" fill="none"/>
  <circle cx="100" cy="133" r="4" fill="url(#goldGradient)"/>
  
  <!-- Scarab Detail -->
  <path d="M95,45 L105,45 L115,65 L85,65 Z" fill="url(#goldGradient)" stroke="#000" stroke-width="1"/>
  <path d="M100,35 L100,45" stroke="url(#goldGradient)" stroke-width="3"/>
</svg>
