<?xml version="1.0" encoding="UTF-8"?>
<svg width="120" height="120" viewBox="0 0 120 120" fill="none" xmlns="http://www.w3.org/2000/svg">
  <!-- خلفية دائرية للوجه -->
  <circle cx="60" cy="60" r="55" fill="#FFC857" stroke="#C4A456" stroke-width="4"/>
  <!-- التاج المصري -->
  <path d="M60 10C45 10 35 20 30 30C25 40 25 45 25 50H95C95 45 95 40 90 30C85 20 75 10 60 10Z" fill="#D4AF37" stroke="#B8860B" stroke-width="2"/>
  <!-- زخرفة التاج -->
  <rect x="55" y="5" width="10" height="15" fill="#D4AF37" stroke="#B8860B" stroke-width="1"/>
  <circle cx="60" cy="5" r="4" fill="#D4AF37" stroke="#B8860B" stroke-width="1"/>
  <!-- الوجه -->
  <circle cx="60" cy="65" r="25" fill="#F8D7A0"/>
  <!-- العينين -->
  <ellipse cx="50" cy="60" rx="5" ry="3" fill="#5B4B3B"/>
  <ellipse cx="70" cy="60" rx="5" ry="3" fill="#5B4B3B"/>
  <!-- المكياج المصري للعينين -->
  <path d="M45 60C40 55 35 55 30 58" stroke="#000" stroke-width="1.5"/>
  <path d="M75 60C80 55 85 55 90 58" stroke="#000" stroke-width="1.5"/>
  <!-- الأنف والفم -->
  <path d="M60 62L60 70" stroke="#8E6B5C" stroke-width="1.5"/>
  <path d="M55 75C58 77 62 77 65 75" stroke="#8E6B5C" stroke-width="1.5"/>
  <!-- القلادة المصرية -->
  <path d="M35 90C45 95 75 95 85 90" fill="#D4AF37" stroke="#B8860B" stroke-width="2"/>
  <path d="M35 90C35 85 40 80 45 80H75C80 80 85 85 85 90" stroke="#B8860B" stroke-width="2"/>
  <circle cx="60" cy="85" r="3" fill="#D40000" stroke="#B8860B" stroke-width="1"/>
  <circle cx="50" cy="85" r="2" fill="#1E3EB0" stroke="#B8860B" stroke-width="1"/>
  <circle cx="70" cy="85" r="2" fill="#1E3EB0" stroke="#B8860B" stroke-width="1"/>
  <!-- توهج خلفي -->
  <circle cx="60" cy="60" r="57" stroke="#FFD700" stroke-width="1" stroke-opacity="0.5"/>
  <circle cx="60" cy="60" r="59" stroke="#FFD700" stroke-width="1" stroke-opacity="0.3"/>
</svg>
