<?xml version="1.0" encoding="UTF-8"?>
<svg width="200" height="200" viewBox="0 0 200 200" xmlns="http://www.w3.org/2000/svg">
  <title>Queen Cleopatra Symbol</title>
  <defs>
    <linearGradient id="goldGradient" x1="0%" y1="0%" x2="100%" y2="100%">
      <stop offset="0%" stop-color="#FFF9C4" />
      <stop offset="50%" stop-color="#FFC107" />
      <stop offset="100%" stop-color="#FF8F00" />
    </linearGradient>
    <linearGradient id="blueGradient" x1="0%" y1="0%" x2="100%" y2="100%">
      <stop offset="0%" stop-color="#64B5F6" />
      <stop offset="50%" stop-color="#2196F3" />
      <stop offset="100%" stop-color="#1976D2" />
    </linearGradient>
  </defs>
  
  <!-- Background Circle -->
  <circle cx="100" cy="100" r="95" fill="#111" stroke="url(#goldGradient)" stroke-width="5"/>
  
  <!-- Crown -->
  <path d="M60,70 L100,40 L140,70 L130,80 L110,70 L100,80 L90,70 L70,80 Z" fill="url(#goldGradient)"/>
  
  <!-- Face -->
  <ellipse cx="100" cy="110" rx="35" ry="45" fill="#D2691E"/>
  
  <!-- Eyes -->
  <ellipse cx="85" cy="100" rx="5" ry="7" fill="#000"/>
  <ellipse cx="115" cy="100" rx="5" ry="7" fill="#000"/>
  
  <!-- Eyebrows -->
  <path d="M75,90 Q85,85 95,90" stroke="#000" stroke-width="3" fill="none"/>
  <path d="M105,90 Q115,85 125,90" stroke="#000" stroke-width="3" fill="none"/>
  
  <!-- Lips -->
  <path d="M90,125 Q100,132 110,125" stroke="#8B0000" stroke-width="3" fill="#A52A2A"/>
  
  <!-- Necklace -->
  <path d="M70,145 Q100,160 130,145" stroke="url(#goldGradient)" stroke-width="8" fill="none"/>
  
  <!-- Headpiece -->
  <path d="M65,85 L55,65 L65,55 L75,65 L65,85 Z" fill="url(#blueGradient)"/>
  <path d="M135,85 L145,65 L135,55 L125,65 L135,85 Z" fill="url(#blueGradient)"/>
  
  <!-- Decorative Elements -->
  <circle cx="100" cy="55" r="6" fill="#E65100"/>
  <circle cx="70" cy="150" r="4" fill="url(#goldGradient)"/>
  <circle cx="85" cy="155" r="4" fill="url(#goldGradient)"/>
  <circle cx="100" cy="158" r="4" fill="url(#goldGradient)"/>
  <circle cx="115" cy="155" r="4" fill="url(#goldGradient)"/>
  <circle cx="130" cy="150" r="4" fill="url(#goldGradient)"/>
</svg>
