<?xml version="1.0" encoding="UTF-8"?>
<svg width="200" height="200" viewBox="0 0 200 200" xmlns="http://www.w3.org/2000/svg">
  <title>Eye of Horus Symbol</title>
  <defs>
    <linearGradient id="eyeGradient" x1="0%" y1="0%" x2="100%" y2="100%">
      <stop offset="0%" stop-color="#80DEEA" />
      <stop offset="50%" stop-color="#00BCD4" />
      <stop offset="100%" stop-color="#0097A7" />
    </linearGradient>
    <linearGradient id="goldGradient" x1="0%" y1="0%" x2="100%" y2="100%">
      <stop offset="0%" stop-color="#FFF9C4" />
      <stop offset="50%" stop-color="#FFC107" />
      <stop offset="100%" stop-color="#FF8F00" />
    </linearGradient>
  </defs>
  
  <!-- Background -->
  <rect x="10" y="10" width="180" height="180" rx="5" fill="#111" stroke="url(#goldGradient)" stroke-width="5"/>
  
  <!-- Eye Outline -->
  <path d="M30,100 
           C60,60 140,60 170,100 
           C140,140 60,140 30,100 Z" 
        fill="none" 
        stroke="url(#goldGradient)" 
        stroke-width="5"/>
  
  <!-- Eye White -->
  <path d="M40,100 
           C65,70 135,70 160,100 
           C135,130 65,130 40,100 Z" 
        fill="#ECEFF1"/>
  
  <!-- Iris -->
  <circle cx="100" cy="100" r="30" fill="url(#eyeGradient)" stroke="#000" stroke-width="1"/>
  
  <!-- Pupil -->
  <circle cx="100" cy="100" r="15" fill="#000"/>
  
  <!-- Eye Markings -->
  <path d="M40,100 L20,80" stroke="url(#goldGradient)" stroke-width="5" stroke-linecap="round"/>
  <path d="M30,110 L10,120" stroke="url(#goldGradient)" stroke-width="5" stroke-linecap="round"/>
  <path d="M40,120 L25,145" stroke="url(#goldGradient)" stroke-width="5" stroke-linecap="round"/>
  <path d="M100,130 L100,160" stroke="url(#goldGradient)" stroke-width="5" stroke-linecap="round"/>
  <path d="M160,120 L175,145" stroke="url(#goldGradient)" stroke-width="5" stroke-linecap="round"/>
  
  <!-- Reflection in Eye -->
  <circle cx="80" cy="90" r="5" fill="#FFFFFF" opacity="0.6"/>
</svg>
