<?xml version="1.0" encoding="UTF-8"?>
<svg width="120" height="120" viewBox="0 0 120 120" fill="none" xmlns="http://www.w3.org/2000/svg">
  <!-- خلفية دائرية -->
  <circle cx="60" cy="60" r="55" fill="#3E7C17" stroke="#2B590F" stroke-width="4"/>
  
  <!-- حرف J بتصميم مصري -->
  <path d="M40 30L80 30" stroke="#D4AF37" stroke-width="8" stroke-linecap="round"/>
  <path d="M60 30L60 75" stroke="#D4AF37" stroke-width="8" stroke-linecap="round"/>
  <path d="M40 75C40 85 50 90 60 90C70 90 80 85 80 75" stroke="#D4AF37" stroke-width="8" stroke-linecap="round" fill="none"/>
  
  <!-- زخارف هيروغليفية على الحواف -->
  <circle cx="30" cy="30" r="5" fill="#D4AF37"/>
  <circle cx="90" cy="30" r="5" fill="#D4AF37"/>
  <circle cx="30" cy="90" r="5" fill="#D4AF37"/>
  <circle cx="90" cy="90" r="5" fill="#D4AF37"/>
  
  <!-- خطوط زخرفية مصرية -->
  <rect x="25" y="45" width="8" height="2" fill="#D4AF37"/>
  <rect x="25" y="55" width="8" height="2" fill="#D4AF37"/>
  <rect x="25" y="65" width="8" height="2" fill="#D4AF37"/>
  <rect x="25" y="75" width="8" height="2" fill="#D4AF37"/>
  
  <rect x="87" y="45" width="8" height="2" fill="#D4AF37"/>
  <rect x="87" y="55" width="8" height="2" fill="#D4AF37"/>
  <rect x="87" y="65" width="8" height="2" fill="#D4AF37"/>
  <rect x="87" y="75" width="8" height="2" fill="#D4AF37"/>
  
  <!-- توهج خارجي -->
  <circle cx="60" cy="60" r="57" stroke="#D4AF37" stroke-width="1" stroke-opacity="0.5"/>
  <circle cx="60" cy="60" r="59" stroke="#D4AF37" stroke-width="1" stroke-opacity="0.3"/>
</svg>
