<?xml version="1.0" encoding="UTF-8" standalone="no"?>
<svg xmlns="http://www.w3.org/2000/svg" xmlns:xlink="http://www.w3.org/1999/xlink" version="1.1" width="1200" height="800" viewBox="0 0 1200 800">
  <!-- القاعدة اللونية للسماء المصرية ونهر النيل -->
  <defs>
    <linearGradient id="daySky" x1="0%" y1="0%" x2="0%" y2="100%">
      <stop offset="0%" style="stop-color:#2196F3;stop-opacity:1" />
      <stop offset="60%" style="stop-color:#64B5F6;stop-opacity:1" />
      <stop offset="100%" style="stop-color:#90CAF9;stop-opacity:1" />
    </linearGradient>
    <linearGradient id="nileWater" x1="0%" y1="0%" x2="0%" y2="100%">
      <stop offset="0%" style="stop-color:#1976D2;stop-opacity:1" />
      <stop offset="100%" style="stop-color:#0D47A1;stop-opacity:1" />
    </linearGradient>
    <linearGradient id="desertSand" x1="0%" y1="0%" x2="0%" y2="100%">
      <stop offset="0%" style="stop-color:#FFD54F;stop-opacity:1" />
      <stop offset="100%" style="stop-color:#FF8F00;stop-opacity:1" />
    </linearGradient>
    <linearGradient id="pharaohGold" x1="0%" y1="0%" x2="100%" y2="0%">
      <stop offset="0%" style="stop-color:#FFD700;stop-opacity:1" />
      <stop offset="50%" style="stop-color:#FFC107;stop-opacity:1" />
      <stop offset="100%" style="stop-color:#FF8F00;stop-opacity:1" />
    </linearGradient>
    <linearGradient id="clothRoyal" x1="0%" y1="0%" x2="100%" y2="0%">
      <stop offset="0%" style="stop-color:#3F51B5;stop-opacity:1" />
      <stop offset="100%" style="stop-color:#7986CB;stop-opacity:1" />
    </linearGradient>
    <radialGradient id="sun" cx="20%" cy="20%" r="10%" fx="20%" fy="20%">
      <stop offset="0%" style="stop-color:#FFEB3B;stop-opacity:1" />
      <stop offset="100%" style="stop-color:#FF9800;stop-opacity:1" />
    </radialGradient>
    <filter id="sunGlow" x="-50%" y="-50%" width="200%" height="200%">
      <feGaussianBlur stdDeviation="10" result="blur" />
      <feComposite in="SourceGraphic" in2="blur" operator="over" />
    </filter>
    <filter id="waterRipple" width="150%" height="150%">
      <feTurbulence type="fractalNoise" baseFrequency="0.01" numOctaves="2" result="turbulence" />
      <feDisplacementMap in="SourceGraphic" in2="turbulence" scale="10" xChannelSelector="R" yChannelSelector="G" />
    </filter>
  </defs>

  <!-- السماء ونهر النيل -->
  <rect x="0" y="0" width="1200" height="400" fill="url(#daySky)" />
  <rect x="0" y="400" width="1200" height="400" fill="url(#nileWater)" />
  
  <!-- الشمس المصرية -->
  <circle cx="250" cy="150" r="70" fill="url(#sun)" filter="url(#sunGlow)" />
  
  <!-- ضفة نهر النيل (الرمال) -->
  <path d="M 0,400 C 200,420 400,390 600,410 C 800,430 1000,400 1200,420 L 1200,600 C 1000,580 800,610 600,590 C 400,570 200,600 0,580 Z" fill="url(#desertSand)" />
  
  <!-- تموجات النيل -->
  <g filter="url(#waterRipple)">
    <path d="M 0,500 C 50,505 100,495 150,500 C 200,505 250,495 300,500 C 350,505 400,495 450,500 C 500,505 550,495 600,500 C 650,505 700,495 750,500 C 800,505 850,495 900,500 C 950,505 1000,495 1050,500 C 1100,505 1150,495 1200,500 L 1200,530 C 1150,525 1100,535 1050,530 C 1000,525 950,535 900,530 C 850,525 800,535 750,530 C 700,525 650,535 600,530 C 550,525 500,535 450,530 C 400,525 350,535 300,530 C 250,525 200,535 150,530 C 100,525 50,535 0,530 Z" fill="#64B5F6" opacity="0.3" />
    <path d="M 0,550 C 50,555 100,545 150,550 C 200,555 250,545 300,550 C 350,555 400,545 450,550 C 500,555 550,545 600,550 C 650,555 700,545 750,550 C 800,555 850,545 900,550 C 950,555 1000,545 1050,550 C 1100,555 1150,545 1200,550 L 1200,580 C 1150,575 1100,585 1050,580 C 1000,575 950,585 900,580 C 850,575 800,585 750,580 C 700,575 650,585 600,580 C 550,575 500,585 450,580 C 400,575 350,585 300,580 C 250,575 200,585 150,580 C 100,575 50,585 0,580 Z" fill="#64B5F6" opacity="0.2" />
  </g>
  
  <!-- نباتات اللوتس المصرية على ضفة النيل -->
  <g transform="translate(800, 450)">
    <path d="M -20,0 C -15,-30 -5,-50 0,-60 C 5,-50 15,-30 20,0 Z" fill="#4CAF50" />
    <path d="M -15,-20 C -10,-40 -2,-50 0,-55 C 2,-50 10,-40 15,-20 Z" fill="#388E3C" />
    <circle cx="0" cy="-30" r="10" fill="#E91E63" />
    <path d="M 0,0 L 0,50" stroke="#4CAF50" stroke-width="3" />
  </g>
  
  <g transform="translate(850, 470)">
    <path d="M -15,0 C -10,-20 -3,-35 0,-40 C 3,-35 10,-20 15,0 Z" fill="#4CAF50" />
    <path d="M -10,-15 C -7,-30 -2,-35 0,-37 C 2,-35 7,-30 10,-15 Z" fill="#388E3C" />
    <circle cx="0" cy="-20" r="7" fill="#E91E63" />
    <path d="M 0,0 L 0,30" stroke="#4CAF50" stroke-width="2" />
  </g>
  
  <g transform="translate(750, 460)">
    <path d="M -18,0 C -13,-25 -4,-45 0,-50 C 4,-45 13,-25 18,0 Z" fill="#4CAF50" />
    <path d="M -12,-18 C -8,-35 -2,-42 0,-45 C 2,-42 8,-35 12,-18 Z" fill="#388E3C" />
    <circle cx="0" cy="-25" r="9" fill="#E91E63" />
    <path d="M 0,0 L 0,40" stroke="#4CAF50" stroke-width="3" />
  </g>
  
  <!-- مركب على النيل في البعيد -->
  <g transform="translate(400, 500)">
    <path d="M -100,0 C -80,-20 -50,-25 0,-25 C 50,-25 80,-20 100,0 Z" fill="#795548" />
    <rect x="-5" y="-70" width="10" height="45" fill="#A1887F" />
    <path d="M -60,-25 L -60,-40 L 60,-40 L 60,-25 Z" fill="#8D6E63" />
    <path d="M -30,-40 L -30,-60 L 30,-60 L 30,-40 Z" fill="#8D6E63" />
    <path d="M -40,-70 L 40,-70 L 0,-100 Z" fill="#A1887F" />
    <path d="M 5,-70 C 20,-65 40,-55 50,-40 C 30,-50 10,-60 5,-70 Z" fill="#D7CCC8" opacity="0.7" />
  </g>
  
  <!-- ملكة مصر -->
  <g transform="translate(250, 450)">
    <!-- الجسم -->
    <path d="M 0,0 C -10,30 -20,60 -15,100 C -10,120 -5,140 0,150 C 5,140 10,120 15,100 C 20,60 10,30 0,0 Z" fill="#FFC107" />
    
    <!-- الرداء الملكي -->
    <path d="M -15,80 C -25,100 -20,130 -10,150 C 0,160 10,160 20,150 C 30,130 35,100 25,80 C 15,75 5,75 -15,80 Z" fill="url(#clothRoyal)" />
    
    <!-- الرأس وتاج الملكة -->
    <circle cx="0" cy="-15" r="15" fill="#FFA000" />
    <path d="M -15,-15 C -10,-40 10,-40 15,-15 Z" fill="#FFC107" />
    <path d="M -10,-40 L 10,-40 L 0,-60 Z" fill="url(#pharaohGold)" />
    <path d="M -10,-30 L -5,-50 M 10,-30 L 5,-50" stroke="#FFC107" stroke-width="2" />
    
    <!-- الحُلي والزينة -->
    <rect x="-15" y="20" width="30" height="10" fill="url(#pharaohGold)" />
    <path d="M -15,40 L 15,40" stroke="url(#pharaohGold)" stroke-width="4" />
    <path d="M -10,-15 L -5,-10 M 10,-15 L 5,-10" stroke="#000" stroke-width="1" />
    <path d="M -5,-5 C -2,-3 2,-3 5,-5" stroke="#000" stroke-width="1" />
    
    <!-- الذراعان ممسكين بصولجان ملكي -->
    <path d="M -15,40 C -25,50 -30,60 -40,70" stroke="#FFA000" stroke-width="3" />
    <path d="M 15,40 C 25,50 30,60 40,70" stroke="#FFA000" stroke-width="3" />
    <rect x="-45" y="65" width="10" height="30" rx="2" ry="2" fill="url(#pharaohGold)" />
    <path d="M -40,65 C -50,55 -50,45 -40,35 C -30,45 -30,55 -40,65 Z" fill="url(#pharaohGold)" />
  </g>
  
  <!-- طيور في السماء البعيدة -->
  <g opacity="0.6">
    <path d="M 700,100 C 705,95 710,100 715,95 C 720,100 725,95 730,100" stroke="#000" stroke-width="1" fill="none" />
    <path d="M 650,150 C 655,145 660,150 665,145 C 670,150 675,145 680,150" stroke="#000" stroke-width="1" fill="none" />
    <path d="M 600,120 C 605,115 610,120 615,115 C 620,120 625,115 630,120" stroke="#000" stroke-width="1" fill="none" />
    <path d="M 750,130 C 755,125 760,130 765,125 C 770,130 775,125 780,130" stroke="#000" stroke-width="1" fill="none" />
  </g>
  
  <!-- هرم في الخلفية البعيدة -->
  <polygon points="950,200 1050,400 850,400" fill="#FFE082" opacity="0.7" />
  
  <!-- نباتات البردي على الضفة -->
  <g transform="translate(100, 450)">
    <rect x="-2" y="0" width="4" height="60" fill="#8D6E63" />
    <path d="M 0,-10 C -15,0 -20,10 -15,20 C -5,15 5,15 15,20 C 20,10 15,0 0,-10 Z" fill="#81C784" />
    <path d="M 0,0 C -12,10 -15,20 -10,25 C -5,22 5,22 10,25 C 15,20 12,10 0,0 Z" fill="#81C784" />
    <path d="M 0,10 C -10,18 -12,25 -8,30 C -4,27 4,27 8,30 C 12,25 10,18 0,10 Z" fill="#81C784" />
  </g>
  
  <g transform="translate(130, 460)">
    <rect x="-2" y="0" width="4" height="50" fill="#8D6E63" />
    <path d="M 0,-10 C -15,0 -20,10 -15,20 C -5,15 5,15 15,20 C 20,10 15,0 0,-10 Z" fill="#81C784" />
    <path d="M 0,0 C -12,10 -15,20 -10,25 C -5,22 5,22 10,25 C 15,20 12,10 0,0 Z" fill="#81C784" />
  </g>
  
  <g transform="translate(70, 470)">
    <rect x="-2" y="0" width="4" height="40" fill="#8D6E63" />
    <path d="M 0,-10 C -15,0 -20,10 -15,20 C -5,15 5,15 15,20 C 20,10 15,0 0,-10 Z" fill="#81C784" />
    <path d="M 0,0 C -12,10 -15,20 -10,25 C -5,22 5,22 10,25 C 15,20 12,10 0,0 Z" fill="#81C784" />
  </g>
  
  <!-- سحابات خفيفة في السماء -->
  <path d="M 300,100 C 320,90 340,100 360,95 C 380,90 400,100 420,95 C 400,110 360,115 320,110 C 310,105 310,105 300,100 Z" fill="white" opacity="0.7" />
  <path d="M 500,150 C 520,140 540,150 560,145 C 580,140 600,150 620,145 C 600,160 560,165 520,160 C 510,155 510,155 500,150 Z" fill="white" opacity="0.6" />
  <path d="M 750,80 C 770,70 790,80 810,75 C 830,70 850,80 870,75 C 850,90 810,95 770,90 C 760,85 760,85 750,80 Z" fill="white" opacity="0.5" />
</svg>
