<?xml version="1.0" encoding="UTF-8"?>
<svg width="800" height="600" viewBox="0 0 800 600" xmlns="http://www.w3.org/2000/svg">
  <title>Egyptian Pyramids Desert Background</title>
  <defs>
    <linearGradient id="skyGradient" x1="0%" y1="0%" x2="0%" y2="100%">
      <stop offset="0%" stop-color="#001970" />
      <stop offset="60%" stop-color="#1A237E" />
      <stop offset="100%" stop-color="#311B92" />
    </linearGradient>
    <linearGradient id="desertGradient" x1="0%" y1="0%" x2="0%" y2="100%">
      <stop offset="0%" stop-color="#FF9800" />
      <stop offset="20%" stop-color="#EF6C00" />
      <stop offset="100%" stop-color="#BF360C" />
    </linearGradient>
    <radialGradient id="sunGradient" cx="50%" cy="20%" r="50%">
      <stop offset="0%" stop-color="#FFFFFF" />
      <stop offset="40%" stop-color="#FFEE58" />
      <stop offset="100%" stop-color="#FF8F00" />
    </radialGradient>
  </defs>
  
  <!-- Sky -->
  <rect x="0" y="0" width="800" height="600" fill="url(#skyGradient)"/>
  
  <!-- Stars -->
  <circle cx="80" cy="50" r="1.5" fill="white" opacity="0.8" />
  <circle cx="150" cy="80" r="1" fill="white" opacity="0.6" />
  <circle cx="250" cy="40" r="1.5" fill="white" opacity="0.8" />
  <circle cx="400" cy="60" r="1" fill="white" opacity="0.7" />
  <circle cx="500" cy="30" r="1.2" fill="white" opacity="0.8" />
  <circle cx="600" cy="70" r="1" fill="white" opacity="0.6" />
  <circle cx="700" cy="50" r="1.5" fill="white" opacity="0.8" />
  <circle cx="50" cy="120" r="1" fill="white" opacity="0.6" />
  <circle cx="180" cy="150" r="1.2" fill="white" opacity="0.7" />
  <circle cx="300" cy="100" r="1" fill="white" opacity="0.6" />
  <circle cx="650" cy="120" r="1.2" fill="white" opacity="0.7" />
  <circle cx="750" cy="180" r="1" fill="white" opacity="0.6" />
  
  <!-- Sun -->
  <circle cx="630" cy="120" r="50" fill="url(#sunGradient)" />
  
  <!-- Desert Background -->
  <rect x="0" y="350" width="800" height="250" fill="url(#desertGradient)" />
  
  <!-- Distant Mountains -->
  <path d="M0,350 L100,320 L200,340 L300,310 L350,330 L400,300 L450,330 L500,310 L600,350 Z" fill="#994500" opacity="0.7" />
  
  <!-- Great Pyramids -->
  <path d="M200,350 L320,180 L440,350 Z" fill="#E0E0E0" />
  <path d="M320,350 L440,220 L560,350 Z" fill="#BDBDBD" />
  <path d="M440,350 L560,250 L680,350 Z" fill="#9E9E9E" />
  
  <!-- Pyramid Shadows -->
  <path d="M320,350 L320,180 L440,350 Z" fill="rgba(0,0,0,0.3)" />
  <path d="M440,350 L440,220 L560,350 Z" fill="rgba(0,0,0,0.3)" />
  <path d="M560,350 L560,250 L680,350 Z" fill="rgba(0,0,0,0.3)" />
  
  <!-- Foreground Dunes -->
  <path d="M0,450 Q200,400 400,450 Q600,500 800,450 L800,600 L0,600 Z" fill="#BF360C" />
  <path d="M0,480 Q100,460 200,480 Q300,500 400,480 Q500,460 600,480 Q700,500 800,480 L800,600 L0,600 Z" fill="#8D6E63" opacity="0.3" />
  
  <!-- Distant Palm Trees -->
  <path d="M150,350 L150,330 M140,335 L160,335 M138,340 L162,340" stroke="#33691E" stroke-width="2" />
  <path d="M650,350 L650,330 M640,335 L660,335 M638,340 L662,340" stroke="#33691E" stroke-width="2" />
  <path d="M680,350 L680,335 M675,340 L685,340" stroke="#33691E" stroke-width="1.5" />
</svg>
