<?xml version="1.0" encoding="UTF-8" standalone="no"?>
<svg xmlns="http://www.w3.org/2000/svg" xmlns:xlink="http://www.w3.org/1999/xlink" version="1.1" width="1200" height="800" viewBox="0 0 1200 800">
  <!-- القاعدة اللونية للصحراء والسماء -->
  <defs>
    <linearGradient id="sky" x1="0%" y1="0%" x2="0%" y2="100%">
      <stop offset="0%" style="stop-color:#1A237E;stop-opacity:1" />
      <stop offset="40%" style="stop-color:#3949AB;stop-opacity:1" />
      <stop offset="100%" style="stop-color:#9FA8DA;stop-opacity:1" />
    </linearGradient>
    <linearGradient id="desert" x1="0%" y1="0%" x2="0%" y2="100%">
      <stop offset="0%" style="stop-color:#FFD54F;stop-opacity:1" />
      <stop offset="100%" style="stop-color:#FF8F00;stop-opacity:1" />
    </linearGradient>
    <radialGradient id="sun" cx="70%" cy="20%" r="15%" fx="70%" fy="20%">
      <stop offset="0%" style="stop-color:#FFEB3B;stop-opacity:1" />
      <stop offset="100%" style="stop-color:#FF9800;stop-opacity:1" />
    </radialGradient>
    <linearGradient id="pyramid1" x1="0%" y1="0%" x2="0%" y2="100%">
      <stop offset="0%" style="stop-color:#E8D8B2;stop-opacity:1" />
      <stop offset="100%" style="stop-color:#C1A980;stop-opacity:1" />
    </linearGradient>
    <linearGradient id="pyramid2" x1="0%" y1="0%" x2="0%" y2="100%">
      <stop offset="0%" style="stop-color:#D8C8A2;stop-opacity:1" />
      <stop offset="100%" style="stop-color:#B19970;stop-opacity:1" />
    </linearGradient>
    <linearGradient id="pyramid3" x1="0%" y1="0%" x2="0%" y2="100%">
      <stop offset="0%" style="stop-color:#C8B892;stop-opacity:1" />
      <stop offset="100%" style="stop-color:#A18960;stop-opacity:1" />
    </linearGradient>
    <filter id="glow" x="-50%" y="-50%" width="200%" height="200%">
      <feGaussianBlur stdDeviation="10" result="blur" />
      <feComposite in="SourceGraphic" in2="blur" operator="over" />
    </filter>
  </defs>

  <!-- السماء والصحراء -->
  <rect x="0" y="0" width="1200" height="500" fill="url(#sky)" />
  <rect x="0" y="500" width="1200" height="300" fill="url(#desert)" />
  
  <!-- الشمس -->
  <circle cx="850" cy="150" r="80" fill="url(#sun)" filter="url(#glow)" />
  
  <!-- النجوم المتلألئة -->
  <g opacity="0.7">
    <circle cx="100" cy="100" r="1.5" fill="white" />
    <circle cx="200" cy="50" r="1" fill="white" />
    <circle cx="300" cy="150" r="1.2" fill="white" />
    <circle cx="400" cy="75" r="1" fill="white" />
    <circle cx="500" cy="125" r="1.3" fill="white" />
    <circle cx="600" cy="50" r="1.1" fill="white" />
    <circle cx="700" cy="100" r="1.4" fill="white" />
    <circle cx="150" cy="200" r="1" fill="white" />
    <circle cx="250" cy="175" r="1.2" fill="white" />
    <circle cx="350" cy="225" r="1" fill="white" />
    <circle cx="450" cy="200" r="1.1" fill="white" />
    <circle cx="550" cy="175" r="1" fill="white" />
    <circle cx="650" cy="225" r="1.3" fill="white" />
    <circle cx="750" cy="200" r="1" fill="white" />
  </g>
  
  <!-- الأهرامات -->
  <!-- الهرم الكبير -->
  <polygon points="600,500 400,200 200,500" fill="url(#pyramid1)" />
  <!-- الهرم الثاني -->
  <polygon points="900,500 750,250 600,500" fill="url(#pyramid2)" />
  <!-- الهرم الثالث -->
  <polygon points="1100,500 1000,350 900,500" fill="url(#pyramid3)" />
  
  <!-- أبو الهول -->
  <path d="M 500,500 C 500,480 510,470 520,460 C 530,450 540,445 550,445 C 560,445 570,450 580,460 C 590,470 600,485 600,500 Z" fill="#D8B48F" />
  <path d="M 520,460 C 525,455 530,450 540,450 C 550,450 560,455 565,460 C 550,462 535,462 520,460 Z" fill="#A18960" />
  
  <!-- تفاصيل الصحراء -->
  <path d="M 0,500 C 100,490 200,510 300,495 C 400,480 500,500 600,490 C 700,480 800,510 900,495 C 1000,480 1100,500 1200,490 L 1200,800 L 0,800 Z" fill="#FF8F00" opacity="0.3" />
  <path d="M 0,550 C 100,540 200,560 300,545 C 400,530 500,550 600,540 C 700,530 800,560 900,545 C 1000,530 1100,550 1200,540 L 1200,800 L 0,800 Z" fill="#F57C00" opacity="0.2" />
  
  <!-- كثبان رملية بعيدة -->
  <path d="M 0,510 C 50,500 100,515 150,505 C 200,495 250,510 300,500 C 350,490 400,505 450,495 C 500,485 550,500 600,490 C 650,480 700,495 750,485 C 800,475 850,490 900,480 C 950,470 1000,485 1050,475 C 1100,465 1150,480 1200,470 L 1200,500 L 0,500 Z" fill="#FFD54F" opacity="0.5" />
</svg>
