<?xml version="1.0" encoding="UTF-8"?>
<svg xmlns="http://www.w3.org/2000/svg" viewBox="0 0 250 250" width="250" height="250">
  <!-- المخطط الخارجي للأسد -->
  <defs>
    <radialGradient id="lionGradient" cx="50%" cy="50%" r="50%" fx="50%" fy="50%">
      <stop offset="0%" style="stop-color:#D4A76A"/>
      <stop offset="80%" style="stop-color:#B38354"/>
      <stop offset="100%" style="stop-color:#8B5D3B"/>
    </radialGradient>
    <radialGradient id="lionManeGradient" cx="50%" cy="40%" r="60%" fx="50%" fy="40%">
      <stop offset="0%" style="stop-color:#D4A76A"/>
      <stop offset="60%" style="stop-color:#A9783D"/>
      <stop offset="100%" style="stop-color:#8B5D3B"/>
    </radialGradient>
    <filter id="dropShadow" x="-20%" y="-20%" width="140%" height="140%">
      <feGaussianBlur stdDeviation="5" result="blur"/>
      <feOffset in="blur" dx="3" dy="3" result="offsetBlur"/>
      <feComposite in="SourceGraphic" in2="offsetBlur" operator="over"/>
    </filter>
  </defs>
  
  <!-- جسم الأسد -->
  <g filter="url(#dropShadow)">
    <!-- جسم الأسد الرئيسي -->
    <ellipse cx="125" cy="140" rx="80" ry="50" fill="url(#lionGradient)"/>
    
    <!-- الرأس -->
    <circle cx="185" cy="120" r="40" fill="url(#lionGradient)"/>
    
    <!-- فم الأسد -->
    <path d="M165 135 Q185 145, 205 135" stroke="#6D4C41" stroke-width="2" fill="none"/>
    
    <!-- لبدة الأسد -->
    <circle cx="185" cy="120" r="55" fill="url(#lionManeGradient)" style="clip-path: path('M185,65 a55,55 0 0 1 0,110 a55,55 0 0 1 0,-110 z')"/>
    
    <!-- الأذن اليسرى -->
    <circle cx="160" cy="85" r="12" fill="#B38354"/>
    
    <!-- الأذن اليمنى -->
    <circle cx="210" cy="85" r="12" fill="#B38354"/>
    
    <!-- تفاصيل اللبدة -->
    <path d="M130,110 Q140,90 150,105 Q160,85 170,100 Q180,80 190,95 Q200,75 210,90 Q220,80 230,95" stroke="#8B5D3B" stroke-width="3" fill="none"/>
    <path d="M130,115 Q145,95 160,110 Q175,90 190,105 Q205,85 220,100" stroke="#8B5D3B" stroke-width="3" fill="none"/>
    
    <!-- العينان -->
    <circle cx="170" cy="110" r="5" fill="#000"/>
    <circle cx="170" cy="110" r="2" fill="#FFF"/>
    <circle cx="200" cy="110" r="5" fill="#000"/>
    <circle cx="200" cy="110" r="2" fill="#FFF"/>
    
    <!-- الأنف -->
    <path d="M180,125 Q185,130 190,125" fill="#000"/>
    
    <!-- الساق الأمامية اليسرى -->
    <path d="M85,160 L75,200" stroke="#B38354" stroke-width="15" stroke-linecap="round"/>
    
    <!-- الساق الأمامية اليمنى -->
    <path d="M115,160 L125,200" stroke="#B38354" stroke-width="15" stroke-linecap="round"/>
    
    <!-- الساق الخلفية اليسرى -->
    <path d="M150,160 L160,200" stroke="#B38354" stroke-width="15" stroke-linecap="round"/>
    
    <!-- الساق الخلفية اليمنى -->
    <path d="M180,160 L170,200" stroke="#B38354" stroke-width="15" stroke-linecap="round"/>
    
    <!-- الذيل -->
    <path d="M60,140 Q40,120 50,100 Q52,95 60,97" stroke="#B38354" stroke-width="8" fill="none" stroke-linecap="round"/>
  </g>
</svg>
