<svg width="200" height="200" viewBox="0 0 200 200" xmlns="http://www.w3.org/2000/svg">
  <rect width="100%" height="100%" fill="#1A2530" />
  <g>
    <!-- Circular background -->
    <circle cx="100" cy="100" r="60" fill="#8B4513" opacity="0.5" />
    
    <!-- Anubis head -->
    <path d="M 80 60 L 100 40 L 120 60 L 120 110 L 100 125 L 80 110 Z" 
          fill="#2F1801" stroke="#FFD700" stroke-width="1" />
    
    <!-- Ears -->
    <path d="M 80 60 L 70 40 L 85 55" fill="#2F1801" stroke="#FFD700" stroke-width="1" />
    <path d="M 120 60 L 130 40 L 115 55" fill="#2F1801" stroke="#FFD700" stroke-width="1" />
    
    <!-- Snout -->
    <path d="M 90 90 L 100 105 L 110 90 L 110 115 L 100 125 L 90 115 Z" 
          fill="#1A1001" stroke="#FFD700" stroke-width="1" />
    
    <!-- Eyes -->
    <ellipse cx="90" cy="75" rx="5" ry="8" fill="#000" stroke="#FFD700" stroke-width="1" />
    <ellipse cx="110" cy="75" rx="5" ry="8" fill="#000" stroke="#FFD700" stroke-width="1" />
    
    <!-- Eye highlights -->
    <circle cx="88" cy="73" r="2" fill="#FFD700" opacity="0.7" />
    <circle cx="108" cy="73" r="2" fill="#FFD700" opacity="0.7" />
    
    <!-- Neck -->
    <path d="M 90 110 L 90 140 L 110 140 L 110 110" 
          fill="#3a1f02" stroke="#FFD700" stroke-width="1" />
    
    <!-- Collar -->
    <path d="M 85 140 C 90 150, 110 150, 115 140" 
          stroke="#FFD700" stroke-width="2" fill="#D4AF37" />
    
    <!-- Egyptian dress outline -->
    <path d="M 90 140 L 75 155 L 125 155 L 110 140" 
          fill="#B8860B" stroke="#FFD700" stroke-width="1" />
    
    <!-- Ankh symbol -->
    <path d="M 100 150 C 97 148, 97 145, 100 145 C 103 145, 103 148, 100 150 L 100 155" 
          stroke="#FFD700" stroke-width="1.5" fill="none" />
    <path d="M 96 148 L 104 148" 
          stroke="#FFD700" stroke-width="1.5" />
    
    <!-- Striped headdress -->
    <path d="M 80 60 L 75 90 L 80 110 M 120 60 L 125 90 L 120 110" 
          stroke="#FFD700" stroke-width="1" stroke-dasharray="2,2" />
    
    <!-- Staff (optional) -->
    <path d="M 130 120 L 130 160 M 125 125 L 135 125" 
          stroke="#D4AF37" stroke-width="2" />
  </g>
</svg>