<svg width="200" height="200" viewBox="0 0 200 200" xmlns="http://www.w3.org/2000/svg">
  <rect width="100%" height="100%" fill="#1A2530" />
  <g>
    <!-- Gold background circle for pharaoh -->
    <circle cx="100" cy="100" r="60" fill="#D4AF37" opacity="0.4" />
    
    <!-- Pharaoh head outline -->
    <path d="M 75 150 L 75 90 C 75 70, 125 70, 125 90 L 125 150 Z"
          fill="#B8860B" stroke="#FFD700" stroke-width="2" />
    
    <!-- Pharaoh headdress (Nemes) -->
    <path d="M 65 90 L 75 50 L 125 50 L 135 90 Z"
          fill="#D4AF37" stroke="#FFD700" stroke-width="2" />
    
    <!-- Headdress stripes -->
    <path d="M 80 50 L 75 90" stroke="#1A2530" stroke-width="2" />
    <path d="M 95 50 L 90 90" stroke="#1A2530" stroke-width="2" />
    <path d="M 110 50 L 115 90" stroke="#1A2530" stroke-width="2" />
    <path d="M 125 50 L 125 90" stroke="#1A2530" stroke-width="2" />
    
    <!-- Cobra at forehead (uraeus) -->
    <path d="M 95 50 C 100 40, 105 40, 110 50"
          stroke="#FFD700" stroke-width="2" fill="none" />
    <circle cx="100" cy="45" r="3" fill="#FFD700" />
    
    <!-- Pharaoh face -->
    <ellipse cx="100" cy="105" rx="15" ry="20" fill="#E6BE8A" />
    
    <!-- Eyes -->
    <path d="M 90 100 L 95 98 L 100 100" stroke="#000" stroke-width="1" fill="none" />
    <path d="M 110 100 L 105 98 L 100 100" stroke="#000" stroke-width="1" fill="none" />
    
    <!-- Egyptian eye makeup -->
    <path d="M 90 100 L 85 97 L 80 98" stroke="#000" stroke-width="1.5" />
    <path d="M 110 100 L 115 97 L 120 98" stroke="#000" stroke-width="1.5" />
    
    <!-- Mouth -->
    <path d="M 95 115 L 100 117 L 105 115" stroke="#000" stroke-width="1" fill="none" />
    
    <!-- Beard -->
    <path d="M 100 120 L 100 135" stroke="#000" stroke-width="2" />
    <path d="M 97 120 L 97 133" stroke="#000" stroke-width="1.5" />
    <path d="M 103 120 L 103 133" stroke="#000" stroke-width="1.5" />
    
    <!-- Necklace -->
    <path d="M 85 140 C 90 150, 110 150, 115 140" stroke="#FFD700" stroke-width="2" fill="#D4AF37" />
    
    <!-- Shoulder decorations -->
    <rect x="70" y="137" width="10" height="5" fill="#D4AF37" stroke="#FFD700" />
    <rect x="120" y="137" width="10" height="5" fill="#D4AF37" stroke="#FFD700" />
  </g>
</svg>