<svg width="200" height="200" viewBox="0 0 200 200" xmlns="http://www.w3.org/2000/svg">
  <rect width="100%" height="100%" fill="#1A2530" />
  <g>
    <!-- Background circle for the scarab beetle -->
    <circle cx="100" cy="100" r="60" fill="#228B22" opacity="0.8" />
    
    <!-- Scarab body -->
    <ellipse cx="100" cy="110" rx="40" ry="30" fill="#006400" />
    
    <!-- Scarab head -->
    <circle cx="100" cy="70" r="15" fill="#006400" />
    
    <!-- Scarab wings -->
    <path d="M 100 110 C 80 80, 60 85, 60 110 C 60 130, 80 140, 100 130 Z" 
          fill="#008000" stroke="#FFD700" stroke-width="1" />
    <path d="M 100 110 C 120 80, 140 85, 140 110 C 140 130, 120 140, 100 130 Z" 
          fill="#008000" stroke="#FFD700" stroke-width="1" />
    
    <!-- Wing patterns -->
    <path d="M 80 100 C 85 90, 95 90, 100 100" stroke="#FFD700" stroke-width="1" fill="none" />
    <path d="M 120 100 C 115 90, 105 90, 100 100" stroke="#FFD700" stroke-width="1" fill="none" />
    
    <!-- Legs -->
    <path d="M 75 110 C 70 120, 65 125, 60 125" stroke="#FFD700" stroke-width="1" />
    <path d="M 80 115 C 75 125, 70 130, 65 130" stroke="#FFD700" stroke-width="1" />
    <path d="M 85 120 C 80 130, 75 135, 70 135" stroke="#FFD700" stroke-width="1" />
    
    <path d="M 125 110 C 130 120, 135 125, 140 125" stroke="#FFD700" stroke-width="1" />
    <path d="M 120 115 C 125 125, 130 130, 135 130" stroke="#FFD700" stroke-width="1" />
    <path d="M 115 120 C 120 130, 125 135, 130 135" stroke="#FFD700" stroke-width="1" />
    
    <!-- Decorative circles around the beetle -->
    <circle cx="100" cy="130" r="5" fill="#FFD700" opacity="0.7" />
    <circle cx="100" cy="65" r="3" fill="#FFD700" opacity="0.7" />
  </g>
</svg>